<?xml version="1.0" encoding="utf-8"?>
<!-- Generator: Adobe Illustrator 22.0.1, SVG Export Plug-In . SVG Version: 6.00 Build 0)  -->
<svg version="1.1" baseProfile="basic" xmlns="http://www.w3.org/2000/svg" xmlns:xlink="http://www.w3.org/1999/xlink" x="0px"
	 y="0px" viewBox="0 0 47.5 42.5" xml:space="preserve">
<style type="text/css">
	.st0{fill:none;stroke:#000000;stroke-miterlimit:10;}
</style>
<g id="Typography">
	<g>
		<path d="M4.4,5.5H3.3V5.2h4.1v0.3H6.1v12.8h1.3v0.3H3.3v-0.3h1.1V5.5z"/>
		<path d="M16.5,8.1v10.7h-0.3c-0.3,0-0.6-0.1-0.8-0.4c-0.2-0.3-0.5-0.8-0.9-1.7l-4.2-9.4h-0.1v8.4c0,1,0.1,1.7,0.4,2.1
			c0.3,0.4,0.8,0.6,1.6,0.6h0.1v0.3H7.9v-0.3c0.8,0,1.3-0.2,1.6-0.6c0.3-0.4,0.5-1.1,0.5-2.1V6.4c-0.3-0.6-0.8-1-1.7-1V5.2H10
			c0.5,0,0.9,0.1,1.1,0.3c0.3,0.2,0.5,0.6,0.8,1.2l4.2,9.4h0.1v-8c0-1-0.1-1.7-0.4-2.1c-0.3-0.4-0.8-0.6-1.6-0.6h-0.1V5.2h4.5v0.3
			c-0.8,0-1.3,0.2-1.6,0.6C16.6,6.4,16.5,7.1,16.5,8.1z"/>
		<path d="M23.4,18.6h-4.1v-0.3h1.1V5.5h-1.1V5.2h4.3c1.6,0,2.8,0.6,3.6,1.7c0.8,1.1,1.2,2.8,1.2,5c0,2.2-0.4,3.9-1.2,5.1
			C26.4,18.1,25.1,18.6,23.4,18.6z M26.4,14.5c0.1-0.7,0.1-1.6,0.1-2.6c0-1.1,0-1.9-0.1-2.6c-0.1-0.7-0.2-1.4-0.5-1.9
			c-0.4-1.2-1.3-1.8-2.6-1.8h-1.3v12.8h1c1.5,0,2.4-0.6,2.9-1.8C26.2,15.9,26.3,15.3,26.4,14.5z"/>
		<path d="M31.2,5.5h-1.1V5.2h4.1v0.3h-1.3v12.8h1.3v0.3h-4.1v-0.3h1.1V5.5z"/>
		<path d="M35.7,18.6v-0.3h1.1V5.5h-1.1V5.2h7.6v4.3H43c0-1.7-0.2-2.8-0.6-3.2s-1.2-0.7-2.5-0.7h-1.4v6h0.8c0.8,0,1.3-0.2,1.6-0.6
			c0.3-0.4,0.4-1.1,0.4-2.1h0.3v5.7h-0.3c0-1-0.1-1.7-0.4-2.1c-0.3-0.4-0.8-0.6-1.6-0.6h-0.8v6.5h1.3c0.8,0,1.4-0.1,1.8-0.2
			s0.8-0.4,1.1-0.7c0.3-0.4,0.5-0.8,0.5-1.4c0.1-0.6,0.2-1.4,0.2-2.5h0.3l-0.2,5.1H35.7z"/>
	</g>
	<g>
		<path d="M5.1,35.2V35h0.9v-9.3c-0.8,0-1.3,0.2-1.7,0.5c-0.3,0.2-0.5,0.8-0.6,1.6c0,0.3-0.1,0.8-0.1,1.3H3.4l0.1-3.6h6.3L10,29H9.8
			c0-1-0.1-1.7-0.3-2.1s-0.3-0.7-0.5-0.8c-0.4-0.3-0.9-0.5-1.7-0.5V35h1v0.2H5.1z"/>
		<path d="M10.7,35.2V35h0.9v-9.3h-0.9v-0.2h6.1v3.1h-0.2c0-1.2-0.2-2-0.5-2.4c-0.3-0.4-1-0.5-2-0.5H13V30h0.7c0.6,0,1-0.1,1.2-0.4
			c0.2-0.3,0.3-0.8,0.3-1.5h0.2v4.1h-0.2c0-0.7-0.1-1.3-0.3-1.5c-0.2-0.3-0.6-0.4-1.2-0.4H13V35h1c0.6,0,1.1,0,1.5-0.1
			c0.3-0.1,0.6-0.3,0.8-0.5c0.2-0.3,0.4-0.6,0.4-1s0.1-1,0.2-1.8h0.2L17,35.2H10.7z"/>
		<path d="M19.8,33c-0.1,0.3-0.1,0.6-0.1,0.9c0,0.3,0,0.5,0.1,0.7c0.1,0.2,0.2,0.3,0.4,0.3c0.3,0.1,0.7,0.1,1.2,0.1h0.2v0.2h-3.7V35
			c0.4,0,0.8-0.1,1-0.4c0.2-0.3,0.4-0.8,0.6-1.4l2.1-7.1c0.1-0.2,0.1-0.4,0.2-0.5c0.1-0.3,0.3-0.4,0.6-0.4h0l2.5,9.9h0.9v0.2h-3.2
			V35h0.9l-0.9-3.4h-2.4L19.8,33z M21.5,27.3l-1.2,4h2.3L21.5,27.3L21.5,27.3z"/>
		<path d="M30.9,29.4c0,0.3,0,0.7,0,1.2s0,1,0.1,1.5c0.1,0.5,0.1,1,0.3,1.5c0.1,0.5,0.3,0.9,0.6,1.2c0.3,0.3,0.7,0.4,1.1,0.4
			c0.7,0,1.3-0.3,1.6-0.8s0.6-1.3,0.7-2.2l0.2,0c-0.1,1-0.3,1.9-0.8,2.5s-1.1,0.9-2,0.9c-1.1,0-1.9-0.5-2.5-1.5
			c-0.6-1-0.9-2.2-0.9-3.7c0-1.4,0.3-2.7,0.9-3.7c0.6-1,1.5-1.5,2.5-1.5c0.4,0,0.8,0.1,1.2,0.3c0.4,0.2,0.7,0.3,0.7,0.3
			c0.2,0,0.4-0.2,0.4-0.5h0.2v3.5h-0.2c-0.1-1-0.4-1.8-0.7-2.4c-0.3-0.6-0.8-0.9-1.5-0.9c-0.8,0-1.3,0.4-1.6,1.2
			C31,27.3,30.9,28.2,30.9,29.4z"/>
		<path d="M42.8,34c-0.6,1-1.5,1.5-2.6,1.5s-2-0.5-2.6-1.5c-0.6-1-0.9-2.2-0.9-3.7c0-1.5,0.3-2.7,1-3.7c0.6-1,1.5-1.5,2.6-1.5
			s2,0.5,2.6,1.5c0.6,1,1,2.2,1,3.7C43.7,31.8,43.4,33,42.8,34z M38.8,34.5c0.1,0.3,0.3,0.5,0.6,0.6c0.2,0.1,0.5,0.2,0.8,0.2
			c0.3,0,0.6-0.1,0.8-0.2c0.2-0.1,0.4-0.3,0.6-0.6c0.1-0.3,0.3-0.5,0.4-0.8c0.1-0.3,0.2-0.6,0.2-1.1s0.1-0.8,0.1-1.1
			c0-0.3,0-0.7,0-1.2c0-0.5,0-0.9,0-1.2s0-0.7-0.1-1.1c0-0.4-0.1-0.8-0.2-1c-0.1-0.3-0.2-0.5-0.4-0.8c-0.1-0.3-0.3-0.4-0.6-0.6
			c-0.2-0.1-0.5-0.2-0.8-0.2s-0.6,0.1-0.8,0.2c-0.2,0.1-0.4,0.3-0.6,0.6c-0.1,0.3-0.3,0.5-0.4,0.8c-0.1,0.3-0.2,0.6-0.2,1
			c-0.1,0.7-0.1,1.3-0.1,2c0,0.7,0,1.2,0,1.5c0,0.3,0,0.7,0.1,1.1c0,0.4,0.1,0.8,0.2,1.1C38.5,33.9,38.6,34.2,38.8,34.5z"/>
	</g>
</g>
<g id="Rounded_Rectangle">
	<path class="st0" d="M46.5,42H1c-0.3,0-0.5-0.2-0.5-0.5V1c0-0.3,0.2-0.5,0.5-0.5h45.5C46.8,0.5,47,0.7,47,1v40.5
		C47,41.7,46.8,42,46.5,42z"/>
	<g>
	</g>
	<g>
	</g>
	<g>
	</g>
	<g>
	</g>
	<g>
	</g>
	<g>
	</g>
	<g>
	</g>
	<g>
	</g>
	<g>
	</g>
	<g>
	</g>
	<g>
	</g>
	<g>
	</g>
	<g>
	</g>
	<g>
	</g>
	<g>
	</g>
</g>
</svg>
